#!OML:ASF H:\Terrain\Patient Classification 1\Terrain2\Thursday\justin.ASF
:FULLY-SPECIFIED
:DEGREES
1583
root 31.013 18.5237 20.1148 489.758 -82.6646 -136.111
lowerback 13.727 2.1103 8.56581
upperback 5.22305 3.65125 3.86859
thorax -1.84822 1.71095 -1.28407
lowerneck -13.7607 -0.819361 -9.14864
upperneck 34.6752 -0.164349 1.2819
head 14.1998 -1.4923 2.00042
rclavicle -3.63776e-014 -2.54444e-014
rhumerus -29.6962 -6.50789 -78.1599
rradius 25.9169
rwrist -9.36603
rhand -22.562 12.1199
rfingers 7.12502
rthumb 3.86609 -17.8247
lclavicle -3.63776e-014 -2.54444e-014
lhumerus -36.6997 10.2433 83.9121
lradius 27.7001
lwrist -2.93569
lhand -13.6093 20.4147
lfingers 7.12502
lthumb 12.5058 50.0205
rfemur 6.48255 -2.15812 30.797
rtibia 24.112
rfoot -19.9755 4.98993
rtoes 7.09873
lfemur -80.7026 24.5504 -17.4504
ltibia 122.974
lfoot -16.3041 -23.6972
ltoes -0.00188252
1584
root 30.9674 18.5189 20.1099 491.555 -82.6849 -138.171
lowerback 13.9546 2.10003 8.35601
upperback 5.28829 3.62649 3.79701
thorax -1.91436 1.69517 -1.2486
lowerneck -13.746 -0.80406 -9.31667
upperneck 34.7473 -0.161054 1.44762
head 14.2289 -1.49625 2.09799
rclavicle 2.38542e-015 -7.95139e-016
rhumerus -29.6418 -6.22076 -78.3325
rradius 25.9471
rwrist -9.55669
rhand -22.3942 12.3199
rfingers 7.12502
rthumb 4.02813 -17.6218
lclavicle 2.38542e-015 -7.95139e-016
lhumerus -36.8444 10.4247 83.7895
lradius 27.1976
lwrist -3.34858
lhand -13.7387 20.5761
lfingers 7.12502
lthumb 12.3811 50.1894
rfemur 6.99799 -1.39806 30.7963
rtibia 24.0247
rfoot -19.9551 4.33262
rtoes 7.11316
lfemur -81.2284 23.9384 -18.0813
ltibia 122.06
lfoot -16.5112 -23.628
ltoes -0.903316
1585
root 30.9256 18.5101 20.1104 492.359 -82.6534 -139.136
lowerback 14.101 2.14481 8.42327
upperback 5.33695 3.70185 3.67839
thorax -1.92214 1.73458 -1.42532
lowerneck -13.6465 -0.803566 -9.09201
upperneck 34.7218 -0.247574 1.47157
head 14.1967 -1.49952 2.05493
rclavicle 3.35946e-014 4.69132e-014
rhumerus -29.6926 -6.80954 -78.3691
rradius 26.0227
rwrist -9.06245
rhand -22.1006 12.2731
rfingers 7.12502
rthumb 4.31164 -17.663
lclavicle 3.35946e-014 4.69132e-014
lhumerus -36.8711 9.91143 83.8823
lradius 26.7951
lwrist -3.34968
lhand -14.2425 20.9956
lfingers 7.12502
lthumb 11.8953 50.6376
rfemur 7.37897 -0.909735 30.8573
rtibia 23.9367
rfoot -19.882 3.94427
rtoes 7.6544
lfemur -81.8056 23.1762 -18.5765
ltibia 121.006
lfoot -16.8824 -23.386
ltoes -4.19061
1586
root 30.8868 18.5017 20.1193 491.906 -82.4365 -138.726
lowerback 14.1977 2.145 8.82211
upperback 5.38653 3.75306 3.63964
thorax -1.88321 1.76354 -1.69473
lowerneck -13.7575 -0.80762 -9.04951
upperneck 34.7789 -0.292255 1.58987
head 14.2485 -1.49808 2.09
rclavicle 2.48481e-014 6.36111e-014
rhumerus -29.6237 -7.14656 -78.425
rradius 26.1166
rwrist -8.63682
rhand -22.3462 12.031
rfingers 7.12502
rthumb 4.07448 -17.9097
lclavicle 2.48481e-014 6.36111e-014
lhumerus -36.7874 9.82392 83.8575
lradius 26.3683
lwrist -3.50425
lhand -14.3726 21.2547
lfingers 7.12502
lthumb 11.7698 50.904
rfemur 7.59276 -0.916283 30.9942
rtibia 23.8589
rfoot -19.9513 4.03928
rtoes 8.62007
lfemur -82.5818 22.4856 -18.8448
ltibia 119.919
lfoot -17.0796 -23.1218
ltoes -7.5514
1587
root 30.8438 18.4992 20.1236 492.428 -82.3055 -139.32
lowerback 14.2867 2.10118 8.96645
upperback 5.48232 3.70746 3.59799
thorax -1.81875 1.74419 -1.81218
lowerneck -14.0396 -0.835889 -9.18996
upperneck 34.8858 -0.301772 1.7172
head 14.3628 -1.50642 2.16697
rclavicle -1.09332e-014 -4.77083e-015
rhumerus -29.4191 -6.6504 -78.6591
rradius 26.2458
rwrist -8.90157
rhand -22.6054 11.9123
rfingers 7.12502
rthumb 3.82416 -18.0331
lclavicle -1.09332e-014 -4.77083e-015
lhumerus -36.7072 10.3709 83.5808
lradius 25.893
lwrist -4.08147
lhand -14.2223 21.3653
lfingers 7.12502
lthumb 11.9147 51.0063
rfemur 7.80962 -1.02383 30.9277
rtibia 23.8612
rfoot -20.1235 4.26565
rtoes 9.4591
lfemur -83.1609 21.8548 -19.0908
ltibia 118.711
lfoot -15.7587 -23.5053
ltoes -4.04958
1588
root 30.7979 18.4919 20.1247 493.446 -82.138 -140.381
lowerback 14.3513 2.10121 9.10773
upperback 5.51345 3.72657 3.48208
thorax -1.79925 1.75756 -2.0158
lowerneck -14.0276 -0.812421 -9.07118
upperneck 34.8751 -0.313323 1.74108
head 14.3535 -1.49238 2.15411
rclavicle -2.52457e-014 1.19271e-014
rhumerus -29.3814 -6.2908 -78.9778
rradius 26.4608
rwrist -9.22129
rhand -22.5479 11.5922
rfingers 7.12502
rthumb 3.8797 -18.3522
lclavicle -2.52457e-014 1.19271e-014
lhumerus -36.7789 10.5967 83.2515
lradius 25.5036
lwrist -4.56921
lhand -14.1444 21.3719
lfingers 7.12502
lthumb 11.9899 51.0085
rfemur 7.97801 -1.1871 30.807
rtibia 23.9352
rfoot -20.3309 4.62809
rtoes 9.76426
lfemur -83.558 21.325 -19.2256
ltibia 117.383
lfoot -14.2021 -23.9669
ltoes 0.682299
1589
root 30.752 18.4749 20.1236 494.05 -81.9751 -141.048
lowerback 14.4403 2.13379 9.22422
upperback 5.51788 3.79253 3.36601
thorax -1.81835 1.79249 -2.2147
lowerneck -13.7488 -0.757066 -8.77258
upperneck 34.6821 -0.357121 1.76553
head 14.1997 -1.46066 2.10293
rclavicle -2.64384e-014 -1.43125e-014
rhumerus -29.3852 -6.73723 -79.1622
rradius 26.612
rwrist -8.97727
rhand -22.8604 11.0377
rfingers 7.12502
rthumb 3.5779 -18.912
lclavicle -2.64384e-014 -1.43125e-014
lhumerus -36.8431 10.5212 82.9329
lradius 25.1896
lwrist -4.48961
lhand -13.8493 21.1976
lfingers 7.12502
lthumb 12.2744 50.8174
rfemur 8.13186 -1.20876 30.793
rtibia 24.1015
rfoot -20.5169 4.80502
rtoes 10.3387
lfemur -83.8303 20.851 -19.4799
ltibia 115.957
lfoot -14.2898 -23.5906
ltoes -3.2733
